<svg width="51" height="51" viewBox="0 0 51 51" fill="none" xmlns="http://www.w3.org/2000/svg">
<path d="M27.563 43.66H36.6574C37.388 42.8681 38.1891 42.0445 39.0027 41.2073C40.7087 39.4469 42.4894 37.6097 44.3199 35.3108C46.4119 32.6816 46.636 31.772 47.2711 29.1972C47.3915 28.713 47.5243 28.1699 47.6987 27.4957L48.7862 23.3279L48.7986 23.2826C49.3797 21.4272 49.4254 20.2009 49.1847 19.4949C49.1099 19.2777 49.0145 19.1329 48.9024 19.056C48.8152 18.9926 48.699 18.97 48.5786 18.9836C48.2964 19.0153 47.9768 19.2099 47.6862 19.5583L44.4569 27.9437C44.4278 28.0206 44.3863 28.093 44.3406 28.1563C44.1497 28.5319 43.8923 28.8985 43.5603 29.2469L37.8321 36.2114C37.5208 36.5915 36.9854 36.6232 36.6408 36.2838C36.2922 35.9444 36.2631 35.3606 36.5744 34.985L42.3067 28.0206C42.3316 27.9889 42.3565 27.9572 42.3856 27.9301C42.9792 27.3146 43.166 26.6494 43.0622 26.1652C43.029 26.0159 42.9709 25.8892 42.8878 25.8032C42.809 25.7263 42.7052 25.672 42.5765 25.6584C42.066 25.5996 41.3105 26.0114 40.3973 27.1925C40.3724 27.2241 40.3434 27.2558 40.3143 27.2875L38.0936 29.4234L38.0812 29.437C35.6778 31.9169 34.6443 32.5051 32.7598 33.5776C32.3655 33.8039 31.9338 34.0483 31.3983 34.365C31.1866 34.4918 30.9791 34.6456 30.7757 34.813C30.5599 34.9941 30.3523 35.1796 30.1572 35.3606C29.161 36.2747 28.638 37.0169 28.3392 37.8359C28.0279 38.6867 27.9158 39.723 27.7622 41.1439C27.6999 41.7186 27.6543 42.2843 27.6169 42.85C27.5879 43.126 27.5754 43.3975 27.563 43.66ZM37.2967 13.8791C37.2801 14.137 37.2718 14.3542 37.2718 14.4538C37.2718 14.6936 37.1182 14.8927 36.9148 14.947L36.3129 15.1461C36.2673 15.1642 36.2216 15.1733 36.1759 15.1733H36.0763C35.8646 15.1733 35.6778 15.0149 35.6322 14.7977L35.105 13.0419V13.0328L35.0054 12.698L34.113 14.4538C34.0756 14.5307 34.0217 14.585 33.9594 14.6348L33.4945 14.9606C33.2787 15.1099 32.9964 15.0375 32.8594 14.8022C32.8304 14.7434 32.8055 14.6755 32.7889 14.6122L32.3323 11.8336L31.6474 11.2996L30.0369 10.9829C30.0908 11.0734 30.1531 11.1729 30.2029 11.2634C30.4935 11.7476 30.7591 12.1957 30.8504 12.6618C30.9957 13.4084 30.7342 14.0329 29.5969 14.4854C29.6259 14.5081 29.6674 14.5262 29.6965 14.5579C30.1406 14.9335 30.2444 15.472 29.2773 16.8612C29.0324 17.2097 28.8207 17.5174 28.6422 17.7844C28.5052 17.9925 28.3765 18.2007 28.252 18.3908L28.472 20.1194C28.5011 20.3502 28.4471 20.5765 28.3101 20.8028C28.2105 20.9702 28.0569 21.1195 27.8535 21.2598C27.7165 21.3503 27.6003 21.4499 27.509 21.5494C27.4716 21.5902 27.4426 21.6264 27.4094 21.6671L27.509 22.1558C27.5547 22.3957 27.4426 22.631 27.2433 22.7215L27.0773 22.8029C27.0483 22.9432 26.9943 23.088 26.932 23.2193C26.8324 23.4365 26.6954 23.6537 26.5211 23.8618C26.3302 24.0881 26.1226 24.251 25.9026 24.3687C25.666 24.4863 25.4211 24.5497 25.1638 24.5497H24.3544C24.1012 24.5497 23.8978 24.3234 23.8978 24.0519C23.8978 23.8256 23.877 23.5858 23.8231 23.3279C23.7691 23.0609 23.6944 22.7803 23.5865 22.4771C23.4661 22.1377 23.3706 21.83 23.3125 21.5539C23.2419 21.2643 23.2129 21.0064 23.2129 20.7892C23.2129 20.5991 23.2295 20.4226 23.2585 20.2733C23.2959 20.0923 23.3499 19.9384 23.4329 19.8072C23.4412 19.7891 23.4495 19.7574 23.4619 19.6895C23.4785 19.59 23.4827 19.4587 23.4827 19.2913C23.4827 19.1601 23.4619 19.0243 23.4204 18.884C23.3748 18.7256 23.3042 18.5582 23.2129 18.3772C23.0967 18.1509 23.0053 17.979 22.9514 17.8342C22.8684 17.6441 22.8227 17.4857 22.8227 17.3681C22.8227 16.5535 22.5612 16.368 22.2042 16.368C21.9884 16.368 21.7476 16.3996 21.4944 16.4449C21.1831 16.4947 20.8552 16.5354 20.5315 16.5354C20.2866 16.5354 20.05 16.4177 19.8217 16.1779C19.6556 16.0014 19.4688 15.7435 19.2862 15.4131C19.1202 15.1145 18.9956 14.8701 18.9043 14.6891C18.7881 14.4402 18.73 14.2501 18.73 14.1144V13.7297C18.7134 12.3405 18.7051 11.0236 19.9379 10.0507C20.4484 9.25874 20.9092 8.74286 21.4571 8.42156C22.0299 8.08217 22.6691 7.96451 23.5408 7.96451C23.794 7.96451 23.9974 8.19077 23.9974 8.46229V9.16823L24.5453 9.43523L24.5536 9.3945C24.6076 9.12751 24.8525 8.95555 25.0974 9.00985C25.2634 9.05058 25.4253 9.10036 25.5623 9.15013C25.7158 9.20896 25.8445 9.27684 25.9524 9.3583C26.0147 9.39902 26.1143 9.43523 26.243 9.45785C26.38 9.48501 26.5336 9.48953 26.6622 9.4669C26.7328 9.4488 26.7785 9.43523 26.7909 9.41713V9.39902C26.8075 9.32209 26.8117 9.24969 26.82 9.17276L26.2721 9.22254C26.0728 9.24064 25.8985 9.12298 25.8238 8.93744C25.6411 8.52112 25.2676 8.31295 24.7861 8.04596C24.2755 7.76087 23.6736 7.42147 23.0136 6.74721C20.8137 7.59796 20.1122 7.71109 19.9379 7.18163C19.83 6.86486 19.9835 6.61597 20.1828 6.2811C20.3654 5.97338 20.6186 5.53895 20.6186 5.13168C20.6186 4.91446 20.7473 4.73345 20.9258 4.65652L22.7729 3.73336C22.5737 3.69264 22.3288 3.65191 22.1254 2.56131C22.088 2.33505 22.1876 2.12236 22.362 2.01828C22.5072 1.93682 22.6733 1.81917 22.8725 1.67888C23.0718 1.5386 23.3084 1.34401 23.5823 1.12227L23.5989 1.10417C22.6608 1.26256 21.7518 1.54312 20.8884 1.95492C20.162 2.29432 19.4896 2.69707 18.867 3.14508C18.2402 3.60213 17.6591 4.11801 17.1278 4.70178C16.5923 5.28554 16.1191 5.91455 15.6999 6.59787C15.2806 7.28119 14.9154 8.01429 14.6082 8.80169C14.6082 8.81074 14.5999 8.81979 14.5999 8.82884C14.301 9.60266 14.0728 10.3991 13.9192 11.2272C13.7739 12.0825 13.695 12.9468 13.695 13.8383C13.695 14.7298 13.7697 15.5941 13.9233 16.4268C13.9316 16.4675 13.9399 16.5173 13.9482 16.558L16.0776 17.6667C16.2395 17.7482 16.3308 17.9156 16.3391 18.1012C16.364 18.7664 16.2021 19.2596 16.0319 19.7574C15.9116 20.133 15.7787 20.5131 15.7663 20.9657C15.7663 21.0154 15.758 21.0562 15.7414 21.0969C16.1523 21.7621 16.6172 22.3776 17.1444 22.9432C17.6798 23.527 18.2568 24.0429 18.8836 24.4999C19.5103 24.957 20.1828 25.3552 20.905 25.6901C20.9133 25.6901 20.9216 25.6991 20.9299 25.6991C21.6397 26.0249 22.3744 26.2738 23.1299 26.4413C23.8936 26.6087 24.6864 26.6902 25.5041 26.6902C26.3219 26.6902 27.1147 26.6087 27.8784 26.4413C28.6505 26.2738 29.3893 26.0249 30.0991 25.6946C30.8255 25.3552 31.498 24.9524 32.1206 24.5044C32.7474 24.0474 33.3243 23.5315 33.8598 22.9477C34.3952 22.364 34.8684 21.735 35.2877 21.0516C35.7069 20.3683 36.0722 19.6352 36.3793 18.8478C36.3793 18.8388 36.3876 18.8297 36.3876 18.8252C36.6865 18.0514 36.9148 17.2504 37.0684 16.4268C37.222 15.5941 37.2967 14.7389 37.2967 13.8474V13.8791ZM20.5356 1.08154C22.0839 0.357498 23.74 0 25.4958 0C26.3717 0 27.2226 0.0905058 28.0528 0.276043C28.8705 0.452529 29.6633 0.724046 30.4353 1.07702C30.4436 1.07702 30.4519 1.08607 30.4602 1.08607C31.2323 1.44357 31.9504 1.87799 32.627 2.36673C33.3077 2.85546 33.9303 3.42564 34.5032 4.04561C35.076 4.6701 35.5948 5.35342 36.0431 6.09104C36.4997 6.83319 36.8899 7.62059 37.2178 8.45324C37.554 9.30399 37.7989 10.1774 37.965 11.0734C38.131 11.9739 38.2182 12.9061 38.2182 13.861C38.2182 14.8158 38.1351 15.7435 37.965 16.6485C37.8031 17.54 37.554 18.4043 37.2303 19.2461C37.2303 19.2551 37.222 19.2642 37.222 19.2732C36.894 20.1149 36.4956 20.8978 36.0473 21.6354C35.599 22.3776 35.076 23.0563 34.5073 23.6808C33.9345 24.3053 33.3077 24.871 32.6311 25.3597C31.9504 25.8575 31.2282 26.2829 30.4644 26.6404C29.684 27.0069 28.8829 27.2739 28.0611 27.4549C27.2351 27.6359 26.38 27.731 25.5041 27.731C24.6283 27.731 23.7774 27.6405 22.9472 27.4549C22.1295 27.2784 21.3367 27.0069 20.5647 26.654C20.5564 26.654 20.5481 26.6449 20.5398 26.6449C19.7677 26.2874 19.0496 25.853 18.373 25.3642C17.6923 24.8755 17.0697 24.3053 16.4968 23.6854C15.924 23.0609 15.4052 22.3776 14.9569 21.6399C14.5003 20.8978 14.1101 20.1104 13.7822 19.2777C13.446 18.427 13.2011 17.5536 13.035 16.6576C12.869 15.7571 12.7818 14.8248 12.7818 13.87C12.7818 12.9152 12.8649 11.9875 13.035 11.0824C13.1969 10.191 13.446 9.32662 13.7697 8.48492C13.7697 8.47587 13.778 8.46681 13.778 8.45776C14.106 7.61606 14.5044 6.83319 14.9527 6.09556C15.401 5.35342 15.924 4.67462 16.4927 4.05013C17.0655 3.42564 17.6923 2.85998 18.3689 2.37125C19.0496 1.87347 19.7718 1.44809 20.5356 1.09059V1.08154ZM14.7742 18.8886C14.8739 19.1374 14.9818 19.3863 15.1022 19.6352C15.1271 19.5673 15.1395 19.5085 15.1644 19.4452C15.2723 19.1193 15.3803 18.8026 15.4093 18.4541L14.4463 17.9563C14.5418 18.2731 14.6497 18.5808 14.7742 18.8886ZM30.7301 2.42103C30.3025 2.18571 29.8584 1.98208 29.4018 1.80559C27.6916 2.24002 27.2018 1.98208 26.6539 1.68793C26.38 1.54765 26.0811 1.38926 25.4253 1.38926H25.0351C24.9977 1.38926 24.9147 1.42094 24.7819 1.49787C24.6159 1.59743 24.4 1.74676 24.1468 1.96398C23.8729 2.19024 23.628 2.38935 23.3997 2.55679C23.271 2.65634 23.1465 2.7378 23.0344 2.81473C23.2544 2.87356 23.4246 3.02289 23.5367 4.13611C23.5616 4.34428 23.4536 4.55244 23.271 4.64295L21.5318 5.50728C21.4488 6.05484 21.1748 6.52094 20.9673 6.86486C20.959 6.87391 20.959 6.88296 20.9507 6.88296C21.1707 6.74268 21.6978 6.24942 22.9638 5.76069C23.1299 5.67924 23.3457 5.71996 23.4744 5.87835C24.0929 6.58429 24.703 6.91917 25.2053 7.19973C25.7407 7.4984 26.1766 7.74277 26.4962 8.2496L27.2351 8.17267C27.2641 8.16362 27.289 8.16362 27.3181 8.16362C27.5713 8.16362 27.7747 8.38988 27.7747 8.6614C27.7747 8.81979 27.7664 8.97817 27.7539 9.14561C27.7373 9.29494 27.7248 9.45333 27.6999 9.61171V9.62981C27.6792 9.76105 27.6294 9.88776 27.5713 9.99636C27.4094 10.2724 27.1437 10.4308 26.8449 10.4941C26.6 10.5439 26.3343 10.5349 26.0894 10.4941C25.8528 10.4534 25.6245 10.3629 25.4626 10.2453C25.4336 10.2181 25.3921 10.1955 25.3464 10.1774L25.3215 10.286C25.3132 10.3177 25.3049 10.3539 25.2925 10.3855C25.1928 10.6344 24.9189 10.7521 24.6906 10.6435L23.3789 10.019C23.1963 9.95111 23.0718 9.76105 23.0718 9.54383V9.0189C22.5903 9.05058 22.2084 9.15013 21.8805 9.34472C21.4529 9.59361 21.0794 10.028 20.6435 10.7159C20.6145 10.7747 20.5688 10.8245 20.5148 10.8652C19.6141 11.5395 19.6307 12.621 19.639 13.7614C19.639 13.9967 19.6473 14.0872 19.6473 14.1506C19.6473 14.1777 19.6722 14.1687 19.722 14.2682C19.7968 14.4357 19.913 14.6529 20.0666 14.9335C20.2035 15.1823 20.3322 15.3679 20.4484 15.481C20.5024 15.5398 20.5315 15.5625 20.5315 15.5625C20.8054 15.5625 21.096 15.5217 21.3699 15.481C21.6605 15.4403 21.9427 15.3996 22.2001 15.3996C23.0925 15.3996 23.7359 15.7571 23.7359 17.3952C23.7359 17.4269 23.7525 17.3771 23.7733 17.4359C23.8272 17.5536 23.9019 17.712 24.0015 17.9111C24.1219 18.1509 24.2215 18.3862 24.2921 18.617C24.3627 18.8569 24.4 19.0922 24.4 19.3139C24.4 19.5311 24.3834 19.7303 24.3544 19.8977C24.3253 20.1059 24.2631 20.2642 24.18 20.3955C24.1634 20.4136 24.1551 20.4543 24.151 20.5041C24.1344 20.5855 24.1261 20.6851 24.1261 20.8118C24.1261 20.9521 24.151 21.1286 24.1966 21.3367C24.2506 21.563 24.3253 21.8255 24.4332 22.1422C24.5536 22.4816 24.6449 22.8165 24.7072 23.1423C24.7362 23.2917 24.7612 23.4319 24.7778 23.5677H25.1596C25.2883 23.5677 25.4128 23.5451 25.5166 23.4862C25.6328 23.4274 25.7449 23.3369 25.8528 23.2102C25.969 23.079 26.0604 22.9342 26.1185 22.7939C26.1724 22.6672 26.2098 22.554 26.2181 22.4364C26.2264 22.2554 26.3343 22.0879 26.492 22.011L26.5377 21.9839L26.4754 21.6671C26.4547 21.5404 26.4671 21.4091 26.5377 21.2915C26.629 21.1331 26.7536 20.9747 26.8905 20.8344C27.0275 20.6941 27.1811 20.5584 27.3554 20.4362C27.455 20.3593 27.5215 20.305 27.563 20.2461L27.3264 18.3727C27.3015 18.246 27.3264 18.1147 27.3969 17.9971C27.5256 17.7708 27.7041 17.5083 27.8992 17.1961C28.0984 16.8974 28.3101 16.5807 28.5467 16.2458C29.0573 15.5217 29.1486 15.3543 29.1361 15.3453C29.1071 15.3226 29.0282 15.2864 28.9452 15.2457C28.6339 15.1054 28.2894 14.9561 28.1192 14.4447L28.0943 14.3678C28.0403 14.1008 28.2022 13.8338 28.4512 13.775C29.6965 13.4899 30.0078 13.1912 29.9414 12.8518C29.8874 12.5667 29.6674 12.1957 29.4225 11.7929C29.1859 11.3947 28.9327 10.9693 28.7667 10.5122C28.7293 10.4217 28.7127 10.3131 28.7293 10.2136C28.775 9.93753 29.0116 9.75652 29.2648 9.8063L31.8964 10.3222C31.9587 10.3312 32.0251 10.3629 32.0791 10.4036L32.9715 11.096C33.0877 11.1729 33.1707 11.2951 33.1915 11.4445L33.5277 13.4989L34.6941 11.2182C34.7481 11.0915 34.8477 10.9919 34.9764 10.9512C35.2213 10.8697 35.4786 11.0191 35.5575 11.277L35.9767 12.7161L36.3793 14.0284C36.3959 13.7524 36.4167 13.3949 36.4624 13.0374C36.508 12.6708 36.5703 12.3043 36.645 12.0327C36.7073 11.8246 36.782 11.6481 36.8816 11.5259C36.811 11.0508 36.7197 10.5756 36.5993 10.1185C36.4541 9.56194 36.2714 9.0189 36.0556 8.49397C35.8356 7.95998 35.5907 7.45315 35.3084 6.96894C35.0262 6.48021 34.7273 6.01863 34.3994 5.58873C34.0632 5.1543 33.7062 4.74703 33.3243 4.3669C32.9424 3.9913 32.5315 3.64286 32.0957 3.30799C31.6598 2.98217 31.2115 2.69255 30.7384 2.43461L30.7301 2.42103ZM27.5588 20.2597V20.2416C27.5588 20.2507 27.5671 20.2733 27.5671 20.2688L27.5588 20.2597ZM20.8179 6.88296C20.8345 6.93274 20.8718 6.93274 20.9465 6.88296H20.8179ZM23.437 43.66H14.3384C13.6079 42.8681 12.8067 42.0445 11.9932 41.2073C10.2872 39.4469 8.50648 37.6097 6.67596 35.3108C4.58394 32.6816 4.3598 31.772 3.72472 29.1972C3.60435 28.713 3.47152 28.1699 3.29719 27.4957L2.20967 23.3279L2.19721 23.2826C1.6161 21.4272 1.57044 20.2009 1.81119 19.4949C1.8859 19.2777 1.98137 19.1329 2.09344 19.056C2.18061 18.9926 2.29683 18.97 2.41721 18.9836C2.69947 19.0153 3.01908 19.2099 3.30964 19.5583L6.53899 27.9437C6.56804 28.0206 6.60955 28.093 6.65521 28.1563C6.84615 28.5319 7.1035 28.8985 7.43557 29.2469L13.1637 36.2114C13.475 36.5915 14.0105 36.6232 14.355 36.2838C14.7037 35.9444 14.7327 35.3606 14.4214 34.985L8.69742 28.0161C8.67251 27.9844 8.64761 27.9527 8.61856 27.9256C8.02499 27.3101 7.8382 26.6449 7.94197 26.1607C7.97517 26.0114 8.03329 25.8847 8.1163 25.7987C8.19517 25.7217 8.29894 25.6674 8.42762 25.6539C8.93817 25.595 9.69362 26.0068 10.6068 27.1879C10.6317 27.2196 10.6608 27.2513 10.694 27.283L12.9147 29.4189L12.9271 29.4325C15.3305 31.9123 16.364 32.5006 18.2485 33.5731C18.6428 33.7994 19.0745 34.0437 19.61 34.3605C19.8217 34.4872 20.0292 34.6411 20.2326 34.8085C20.4484 34.9895 20.656 35.1751 20.8511 35.3561C21.8473 36.2702 22.3703 37.0123 22.6691 37.8314C22.9804 38.6822 23.0925 39.7185 23.2461 41.1394C23.3084 41.7141 23.354 42.2798 23.3914 42.8454C23.4121 43.126 23.4246 43.3975 23.437 43.66ZM12.2215 43.9768C12.0928 44.1397 12.0139 44.3524 12.0139 44.5831V50.0768C12.0139 50.5882 12.3958 51 12.8607 51H24.3087C24.7778 51 25.1555 50.5837 25.1555 50.0768V44.5334C25.1555 43.9451 25.1223 43.3115 25.0849 42.7233C25.0476 42.1214 24.9977 41.524 24.9355 40.9312C24.7695 39.3791 24.6449 38.2432 24.2464 37.1526C23.8355 36.0349 23.1755 35.071 21.951 33.9442C21.7269 33.736 21.4986 33.5279 21.2578 33.3333C21.0046 33.1251 20.7307 32.926 20.4235 32.7405C19.9254 32.4463 19.4605 32.1793 19.0371 31.935C17.2938 30.9394 16.3391 30.3964 14.0935 28.0794C14.0769 28.0613 14.0561 28.0432 14.0395 28.0296L11.8728 25.9435C10.5487 24.2555 9.25363 23.6944 8.25743 23.8121H8.25328C7.76763 23.8664 7.35255 24.0745 7.02048 24.3913L4.83299 18.7075H4.82884C4.79564 18.6261 4.75413 18.5492 4.70017 18.4768C4.09415 17.6848 3.32624 17.2232 2.59154 17.1418C2.08929 17.0875 1.60364 17.2051 1.18026 17.5038C0.777629 17.7889 0.445562 18.2324 0.23802 18.8433C-0.127253 19.9067 -0.118951 21.5585 0.594992 23.8437L1.67421 27.9844C1.83194 28.5817 1.96892 29.1564 2.09759 29.6633C2.80324 32.5368 3.05229 33.555 5.40581 36.5055C7.26953 38.8451 9.09175 40.7276 10.8434 42.5287C11.3 43.0219 11.7566 43.4925 12.2215 43.9768ZM13.8403 45.5108C13.9524 45.538 14.0686 45.538 14.1848 45.5108H23.4578V49.1582H13.7075V45.5108H13.8403ZM38.7785 43.9768C38.9072 44.1397 38.9861 44.3524 38.9861 44.5831V50.0768C38.9861 50.5882 38.6042 51 38.1393 51H26.6954C26.2264 51 25.8487 50.5837 25.8487 50.0768V44.5334C25.8487 44.5017 25.8487 44.4655 25.8528 44.4338C25.8653 43.841 25.886 43.2663 25.9192 42.7233C25.9566 42.1214 26.0064 41.524 26.0687 40.9312C26.2347 39.3791 26.3592 38.2432 26.7577 37.1526C27.1686 36.0349 27.8286 35.071 29.0531 33.9442C29.2773 33.736 29.5056 33.5279 29.7463 33.3333C29.9995 33.1251 30.2735 32.926 30.5806 32.7405C31.0787 32.4463 31.5436 32.1793 31.967 31.935C33.7104 30.9394 34.665 30.3964 36.9106 28.0794C36.9272 28.0613 36.948 28.0432 36.9646 28.0296L39.1313 25.9435C40.4555 24.2555 41.7505 23.6944 42.7426 23.8121H42.7467C43.2324 23.8664 43.6474 24.0745 43.9795 24.3913L46.167 18.7075H46.1712C46.2044 18.6261 46.2459 18.5492 46.2998 18.4768C46.9059 17.6848 47.6738 17.2232 48.4085 17.1418C48.9107 17.0875 49.3964 17.2051 49.8197 17.5038C50.2224 17.7889 50.5544 18.2324 50.762 18.8433C51.1273 19.9067 51.1189 21.5585 50.405 23.8437L49.3258 27.9844C49.1681 28.5817 49.0311 29.1564 48.9024 29.6633C48.1968 32.5368 47.9477 33.555 45.5942 36.5055C43.7305 38.8451 41.9082 40.7276 40.1566 42.5287C39.7 43.0219 39.2434 43.4925 38.7785 43.9768ZM37.1597 45.5108C37.0476 45.538 36.9314 45.538 36.8152 45.5108H27.5422V49.1582H37.2925V45.5108H37.1597Z" fill="white"/>
</svg>
