<svg width="43" height="41" viewBox="0 0 43 41" fill="none" xmlns="http://www.w3.org/2000/svg">
<path d="M4.45109 6.10788V36.5728H42.9579V40.9945H2.229C1.00073 40.9945 0.00341797 40.0038 0.00341797 38.7836V6.10788H4.45109ZM42.664 16.2269C43.2099 16.9361 43.0734 17.9511 42.3595 18.4934L36.4491 22.9672C35.7353 23.5095 34.7135 23.3739 34.1676 22.6648C33.6217 21.9556 33.7581 20.9406 34.472 20.3983L36.8026 18.6359C31.6585 18.1353 26.7209 16.6997 22.3818 14.6279C16.6988 12.0695 11.8207 7.97804 9.07723 3.4382C8.61532 2.67345 8.86727 1.67927 9.63713 1.22389C10.407 0.765042 11.4078 1.01532 11.8662 1.78008C14.2843 5.78112 18.6654 9.4276 24.0894 12.0173C27.9177 13.8458 32.2534 15.1389 36.7711 15.6568L34.7799 14.0578C34.0801 13.4982 33.9681 12.4797 34.5315 11.7844C35.0949 11.0892 36.1202 10.978 36.8201 11.5376L42.664 16.2269ZM41.0053 29.4884V33.4547H35.9627V29.4884H41.0053ZM31.9875 25.3171V33.4512H26.9449V25.3171H31.9875ZM22.9731 22.4458V33.4512H17.9306V22.4458H22.9731ZM13.9588 18.0728V33.4547H8.91626V18.0728H13.9588Z" fill="white"/>
</svg>
