<svg width="49" height="40" viewBox="0 0 49 40" fill="none" xmlns="http://www.w3.org/2000/svg">
<path fill-rule="evenodd" clip-rule="evenodd" d="M21.0347 14.8912C21.3538 15.4175 21.5252 15.9834 21.5252 16.5651C21.5252 17.0004 21.4295 17.4199 21.2501 17.8275C20.4645 17.4555 19.6351 17.1626 18.7698 16.9569C19.7906 16.3672 20.5682 15.6628 21.0347 14.8912ZM15.7472 18.6981C21.6768 18.6981 26.4819 23.4666 26.4819 29.351C26.4819 35.2355 21.6768 40.004 15.7472 40.004C9.81755 40.004 5.01245 35.2355 5.01245 29.351C5.01245 23.4666 9.82153 18.6981 15.7472 18.6981ZM17.7769 24.4677H19.0888C19.2483 24.4677 19.3759 24.5904 19.3759 24.7368C19.3759 24.7922 19.3599 24.8437 19.328 24.8872L14.0125 34.0878C13.9607 34.1789 13.861 34.2303 13.7613 34.2303H12.4494C12.2899 34.2303 12.1623 34.1076 12.1623 33.9612C12.1623 33.9058 12.1782 33.8544 12.2101 33.8108L17.5296 24.6102C17.5775 24.5192 17.6732 24.4677 17.7769 24.4677ZM9.65405 27.0004C9.65405 26.7827 9.68197 26.5651 9.72982 26.3554C9.78166 26.1496 9.85742 25.9438 9.9611 25.7459C10.0688 25.5402 10.2043 25.3542 10.3678 25.1959C10.5313 25.0376 10.7188 24.903 10.9381 24.7962C11.1534 24.6854 11.3847 24.6063 11.6359 24.5508C11.8831 24.4954 12.1503 24.4717 12.4294 24.4717C12.8442 24.4717 13.223 24.5271 13.5579 24.6419C13.9009 24.7566 14.2 24.9347 14.4512 25.1682C14.7024 25.4017 14.8898 25.6747 15.0174 25.9834L15.0214 25.9992C15.141 26.3 15.2008 26.6363 15.2008 27.0044C15.2008 27.3803 15.141 27.7246 15.0174 28.0293C14.8938 28.3419 14.7024 28.615 14.4512 28.8484C14.2 29.0819 13.9009 29.256 13.5579 29.3708C13.223 29.4856 12.8442 29.541 12.4294 29.541C12.1503 29.541 11.8831 29.5133 11.6359 29.4618C11.3807 29.4064 11.1494 29.3273 10.9381 29.2165L10.9181 29.2046C10.7108 29.0977 10.5273 28.9672 10.3678 28.8128C10.2043 28.6545 10.0688 28.4685 9.9611 28.2628L9.95312 28.2469C9.85343 28.053 9.78166 27.8552 9.72982 27.6494L9.72583 27.6415C9.67798 27.4317 9.65405 27.218 9.65405 27.0004ZM11.9908 27.0123C11.9908 27.2378 12.0107 27.4278 12.0466 27.5821C12.0785 27.7206 12.1264 27.8275 12.1862 27.9066L12.1902 27.9145C12.2141 27.9462 12.246 27.9699 12.2779 27.9858C12.3178 28.0016 12.3696 28.0135 12.4294 28.0135C12.5371 28.0135 12.6169 27.9818 12.6647 27.9145L12.6687 27.9066C12.7285 27.8275 12.7764 27.7206 12.8083 27.5821C12.8442 27.4278 12.8641 27.2378 12.8641 27.0123C12.8641 26.7907 12.8442 26.6007 12.8083 26.4503C12.7764 26.3118 12.7285 26.201 12.6647 26.1179C12.6408 26.0863 12.6129 26.0625 12.581 26.0507C12.5411 26.0348 12.4893 26.023 12.4294 26.023C12.3656 26.023 12.3138 26.0309 12.2739 26.0507C12.238 26.0665 12.2061 26.0902 12.1822 26.1219C12.1224 26.201 12.0745 26.3118 12.0426 26.4464L12.0387 26.4543C12.0068 26.6047 11.9908 26.7946 11.9908 27.0123ZM16.2974 31.6739C16.2974 31.2307 16.4011 30.8073 16.6045 30.4116C16.7082 30.2058 16.8438 30.0237 17.0072 29.8655C17.1707 29.7072 17.3582 29.5726 17.5775 29.4579L17.5934 29.4499C17.8048 29.3431 18.0321 29.2639 18.2793 29.2125C18.5265 29.1571 18.7897 29.1334 19.0728 29.1334C19.9262 29.1334 20.6001 29.3668 21.0986 29.8338C21.3498 30.0673 21.5372 30.3403 21.6648 30.6529C21.7884 30.9577 21.8482 31.3019 21.8482 31.6779C21.8482 32.0538 21.7884 32.3941 21.6648 32.7028C21.5412 33.0154 21.3498 33.2885 21.0986 33.522C20.6001 33.9889 19.9222 34.2224 19.0728 34.2224C18.7937 34.2224 18.5305 34.1947 18.2793 34.1432C18.0281 34.0878 17.7968 34.0087 17.5815 33.8979H17.5775C17.3582 33.7871 17.1707 33.6525 17.0072 33.4943C16.8438 33.336 16.7082 33.15 16.6045 32.9482C16.5048 32.7503 16.425 32.5445 16.3772 32.3348C16.3214 32.1092 16.2974 31.8955 16.2974 31.6739ZM18.6302 31.6898C18.6302 31.9153 18.6501 32.1053 18.686 32.2596C18.7179 32.3981 18.7658 32.5089 18.8256 32.588V32.592C18.8495 32.6237 18.8774 32.6474 18.9093 32.6593C18.9492 32.6751 19.0011 32.687 19.0649 32.687C19.1765 32.687 19.2603 32.6514 19.3121 32.588L19.3201 32.5801C19.3759 32.501 19.4198 32.3941 19.4517 32.2596C19.4875 32.1053 19.5075 31.9153 19.5075 31.6898C19.5075 31.2663 19.4437 30.9616 19.3121 30.7875C19.2882 30.7558 19.2563 30.7281 19.2204 30.7163C19.1805 30.6965 19.1287 30.6886 19.0649 30.6886C18.9572 30.6886 18.8774 30.7202 18.8296 30.7875L18.8176 30.8033C18.7618 30.8825 18.7179 30.9893 18.686 31.1199C18.6501 31.2742 18.6302 31.4642 18.6302 31.6898ZM5.63452 21.4879C2.28092 20.5382 0 18.6901 0 16.5651C0 15.9834 0.171468 15.4214 0.490479 14.8912C1.65487 16.8263 4.78914 18.3142 8.66911 18.7099C7.5127 19.4697 6.48787 20.4076 5.63452 21.4879ZM48.5095 23.2291C48.8285 23.7594 49 24.3213 49 24.903C49 27.9937 44.179 30.5026 38.2374 30.5026C32.2958 30.5026 27.4748 27.9937 27.4748 24.903C27.4748 24.3213 27.6462 23.7594 27.9653 23.2291C29.333 25.5046 33.4163 27.1547 38.2374 27.1547C43.0584 27.1547 47.1418 25.5046 48.5095 23.2291ZM39.8005 15.0415L39.7806 13.6565C40.0956 13.6446 40.3548 13.5497 40.5542 13.3716C40.7576 13.1935 40.8652 12.9798 40.8892 12.7266C40.9131 12.4377 40.8174 12.1844 40.6021 11.9628C40.3827 11.7412 40.0358 11.6106 39.5613 11.571C39.1187 11.5315 38.7757 11.6027 38.5325 11.7847C38.2932 11.9628 38.1576 12.2121 38.1297 12.5287C38.0938 12.9244 38.2414 13.2964 38.5684 13.6407L38.3052 14.7448L34.5927 13.7119L34.9117 10.0633L36.2117 10.1741L35.9844 12.778L37.1966 13.0985C37.069 12.778 37.0172 12.4575 37.0451 12.133C37.0969 11.5235 37.3681 11.021 37.8546 10.6371C38.3411 10.2493 38.9432 10.0871 39.657 10.1504C40.2551 10.2018 40.7735 10.4195 41.2082 10.8033C41.8063 11.3257 42.0695 12.0024 41.9977 12.8334C41.9379 13.4982 41.7146 14.0245 41.3158 14.4123C40.9211 14.8041 40.4146 15.0138 39.8005 15.0415ZM38.2374 9.4816C43.1222 9.4816 47.082 11.0249 47.082 12.9244C47.082 14.8279 43.1222 16.3672 38.2374 16.3672C33.3525 16.3672 29.3928 14.8239 29.3928 12.9244C29.3928 11.021 33.3525 9.4816 38.2374 9.4816ZM38.2374 8.33795C44.179 8.33795 49 10.8469 49 13.9375C49 17.0281 44.179 19.537 38.2374 19.537C32.2958 19.537 27.4748 17.0281 27.4748 13.9375C27.4748 10.8469 32.2958 8.33795 38.2374 8.33795ZM48.5494 17.6731C48.8445 18.1836 49 18.7218 49 19.2798C49 22.3704 44.179 24.8793 38.2374 24.8793C32.2958 24.8793 27.4748 22.3744 27.4748 19.2798C27.4748 18.7218 27.6343 18.1797 27.9254 17.6731C29.2533 19.9802 33.3685 21.6621 38.2374 21.6621C43.1063 21.6621 47.2215 19.9802 48.5494 17.6731ZM14.6506 3.32014L14.5269 4.70914L9.24333 4.25406C9.67798 4.80412 9.98104 5.43332 10.1485 6.14167L8.87646 6.03087C8.78874 5.65888 8.59733 5.24337 8.30225 4.79224C8.00317 4.33716 7.6403 4.01266 7.20565 3.8148L7.30534 2.68698L14.6506 3.32014ZM10.7626 1.13969C15.6475 1.13969 19.6072 2.68302 19.6072 4.58251C19.6072 6.48199 15.6475 8.02533 10.7626 8.02533C5.87777 8.02533 1.91805 6.48199 1.91805 4.58251C1.91805 2.68302 5.87777 1.13969 10.7626 1.13969ZM10.7626 0C16.7042 0 21.5252 2.50495 21.5252 5.59952C21.5252 8.69015 16.7042 11.199 10.7626 11.199C4.82104 11.199 0 8.69015 0 5.59952C0 2.50495 4.82104 0 10.7626 0ZM21.0746 9.33122C21.3697 9.84171 21.5252 10.3799 21.5252 10.9379C21.5252 14.0285 16.7042 16.5374 10.7626 16.5374C4.82104 16.5374 0 14.0285 0 10.9379C0 10.3799 0.159505 9.84171 0.450602 9.33122C1.77848 11.6383 5.89372 13.3241 10.7626 13.3241C15.6315 13.3241 19.7467 11.6383 21.0746 9.33122ZM3.19409 32.0578C1.22022 31.0447 0 29.6359 0 28.0807C0 27.4594 0.195394 26.8579 0.558268 26.3C1.06071 27.0795 1.88216 27.78 2.94287 28.3617C2.91895 28.6862 2.90698 29.0146 2.90698 29.3471C2.90299 30.281 3.00269 31.1872 3.19409 32.0578ZM3.28182 26.2643C1.26009 25.2473 0 23.8188 0 22.2398C0 21.6462 0.179443 21.0764 0.506429 20.5421C1.20426 21.6818 2.58797 22.6672 4.40633 23.3597C3.91585 24.2699 3.53703 25.2434 3.28182 26.2643Z" fill="white"/>
</svg>
