<svg width="52" height="52" viewBox="0 0 52 52" fill="none" xmlns="http://www.w3.org/2000/svg">
<path d="M0 26.0002L0.007617 25.9998C0.007617 18.8164 2.91562 12.3169 7.61615 7.61586C12.3167 2.91567 18.8161 0.00761713 25.9994 0.00761713V0H25.9998L26.0002 0.00761713C33.183 0.00761713 39.6833 2.91567 44.3838 7.61628C49.0844 12.3169 51.9924 18.8164 51.9924 25.9994H52V26.0002H51.9924C51.9924 33.184 49.084 39.6835 44.3838 44.3841C39.6829 49.0843 33.1839 51.9924 26.0006 51.9924V52H25.9998V51.9924C18.8165 51.9924 12.3167 49.0843 7.61615 44.3837C2.91562 39.6831 0.007617 33.184 0.007617 26.0006L0 26.0002ZM17.9761 21.6589C17.1459 20.851 15.8176 20.8697 15.0101 21.6999C14.2027 22.5302 14.2209 23.8585 15.0512 24.6659L24.5813 33.9076L26.0438 32.4041L24.5796 33.914C25.4137 34.7227 26.745 34.7019 27.5541 33.8683C27.5774 33.8437 27.6002 33.8196 27.6218 33.7942L36.9552 24.6659C37.7858 23.8585 37.804 22.5306 36.9966 21.6999C36.1892 20.8692 34.8609 20.851 34.0302 21.6589L26.0374 29.4762L17.9761 21.6589Z" fill="#84C650"/>
</svg>
